<svg aria-hidden="true" style="position: absolute; width: 0; height: 0; overflow: hidden;" version="1.1" xmlns="http://www.w3.org/2000/svg" xmlns:xlink="http://www.w3.org/1999/xlink">
<defs>
<symbol id="icon-clock" viewBox="0 0 32 32">
<title>clock</title>
<path d="M16 0c-8.822 0-16 7.178-16 16s7.178 16 16 16 16-7.178 16-16-7.178-16-16-16zM16 30c-7.72 0-14-6.28-14-14s6.28-14 14-14 14 6.28 14 14-6.28 14-14 14z"></path>
<path d="M17 6h-2v10.414l6.293 6.293 1.414-1.414-5.707-5.707z"></path>
</symbol>
<symbol id="icon-compass" viewBox="0 0 32 32">
<title>compass</title>
<path d="M16 0c-8.836 0-16 7.164-16 16s7.164 16 16 16 16-7.164 16-16c-0.010-8.832-7.168-15.99-16-16zM16 30.933c-8.247 0-14.933-6.686-14.933-14.933s6.686-14.933 14.933-14.933 14.933 6.686 14.933 14.933c-0.009 8.243-6.69 14.924-14.933 14.933z"></path>
<path d="M16 2.667c-7.364 0-13.333 5.97-13.333 13.333s5.97 13.333 13.333 13.333 13.333-5.97 13.333-13.333c-0.008-7.36-5.973-13.325-13.333-13.333zM16 28.267c-6.775 0-12.267-5.492-12.267-12.267s5.492-12.267 12.267-12.267 12.267 5.492 12.267 12.267c-0.008 6.772-5.495 12.259-12.267 12.267z"></path>
<path d="M23.855 8.145c-0.17-0.169-0.431-0.204-0.64-0.086l-9.522 5.434c-0.006 0.004-0.008 0.010-0.014 0.014-0.061 0.052-0.118 0.109-0.171 0.171-0.003 0.006-0.010 0.009-0.013 0.014l-5.436 9.522c-0.119 0.209-0.084 0.471 0.086 0.641s0.433 0.205 0.641 0.086l9.52-5.434c0.006-0.004 0.008-0.010 0.014-0.014 0.061-0.052 0.118-0.109 0.171-0.171 0.003-0.006 0.010-0.009 0.013-0.014l5.436-9.52c0.12-0.209 0.085-0.473-0.086-0.643zM9.954 22.046l4.121-7.216 3.099 3.096zM17.925 17.173l-3.093-3.094 7.216-4.121z"></path>
<path d="M7.467 15.467h-2.133c-0.295 0-0.533 0.239-0.533 0.533s0.239 0.533 0.533 0.533h2.133c0.295 0 0.533-0.239 0.533-0.533s-0.239-0.533-0.533-0.533z"></path>
<path d="M26.667 15.467h-2.133c-0.295 0-0.533 0.239-0.533 0.533s0.239 0.533 0.533 0.533h2.133c0.295 0 0.533-0.239 0.533-0.533s-0.239-0.533-0.533-0.533z"></path>
<path d="M16 8c0.295 0 0.533-0.239 0.533-0.533v-2.133c0-0.295-0.239-0.533-0.533-0.533s-0.533 0.239-0.533 0.533v2.133c0 0.295 0.239 0.533 0.533 0.533z"></path>
<path d="M16 24c-0.295 0-0.533 0.239-0.533 0.533v2.133c0 0.295 0.239 0.533 0.533 0.533s0.533-0.239 0.533-0.533v-2.133c0-0.295-0.239-0.533-0.533-0.533z"></path>
</symbol>
<symbol id="icon-forward" viewBox="0 0 32 32">
<title>forward</title>
<path d="M31.761 15.541l-15.158-10.667c-0.172-0.121-0.395-0.136-0.582-0.039-0.186 0.096-0.303 0.289-0.303 0.498v9.98l-14.835-10.433c-0.171-0.12-0.395-0.135-0.582-0.039-0.186 0.097-0.303 0.289-0.303 0.499v21.319c0 0.209 0.117 0.402 0.303 0.499 0.082 0.042 0.171 0.062 0.259 0.062 0.113 0 0.226-0.035 0.323-0.102l14.835-10.432v9.98c0 0.209 0.117 0.402 0.303 0.499 0.082 0.042 0.171 0.063 0.259 0.063 0.113 0 0.227-0.035 0.323-0.103l15.158-10.667c0.15-0.104 0.239-0.276 0.239-0.459s-0.089-0.354-0.239-0.459zM1.123 25.579v-19.157l13.621 9.578-13.621 9.579zM16.842 25.585v-19.17l13.621 9.585-13.621 9.585z"></path>
</symbol>
<symbol id="icon-heart" viewBox="0 0 32 32">
<title>heart</title>
<path d="M16 30.22c-0.456 0-0.895-0.165-1.237-0.465-1.293-1.13-2.539-2.193-3.639-3.13l-0.006-0.005c-3.224-2.747-6.008-5.12-7.945-7.457-2.165-2.613-3.174-5.090-3.174-7.796 0-2.629 0.902-5.055 2.539-6.831 1.657-1.797 3.929-2.786 6.401-2.786 1.847 0 3.539 0.584 5.028 1.736 0.751 0.581 1.433 1.293 2.033 2.123 0.6-0.83 1.281-1.541 2.033-2.123 1.489-1.152 3.181-1.736 5.028-1.736 2.471 0 4.744 0.99 6.401 2.786 1.637 1.776 2.538 4.201 2.538 6.831 0 2.706-1.008 5.184-3.174 7.796-1.937 2.337-4.721 4.71-7.944 7.457-1.102 0.938-2.35 2.002-3.645 3.136-0.342 0.299-0.782 0.464-1.237 0.464zM8.939 3.624c-1.942 0-3.725 0.775-5.023 2.182-1.317 1.428-2.042 3.403-2.042 5.56 0 2.276 0.846 4.312 2.743 6.6 1.833 2.212 4.56 4.536 7.717 7.227l0.006 0.005c1.104 0.941 2.355 2.007 3.657 3.146 1.31-1.141 2.563-2.209 3.669-3.151 3.157-2.691 5.884-5.014 7.717-7.226 1.896-2.289 2.742-4.324 2.742-6.6 0-2.157-0.725-4.132-2.042-5.56-1.297-1.407-3.081-2.182-5.023-2.182-1.422 0-2.728 0.452-3.881 1.344-1.028 0.795-1.743 1.8-2.163 2.503-0.216 0.362-0.596 0.577-1.016 0.577s-0.801-0.216-1.016-0.577c-0.419-0.703-1.135-1.708-2.163-2.503-1.153-0.892-2.459-1.344-3.881-1.344z"></path>
</symbol>
<symbol id="icon-mail" viewBox="0 0 32 32">
<title>mail</title>
<path d="M28.87 5.217h-25.739c-1.726 0-3.13 1.406-3.13 3.13v15.304c0 1.726 1.406 3.13 3.13 3.13h25.739c1.724 0 3.13-1.403 3.13-3.13v-15.304c0-1.724-1.404-3.13-3.13-3.13zM28.785 7.304c-0.531 0.531-11.679 11.679-12.047 12.047-0.408 0.408-1.068 0.408-1.476 0-0.368-0.368-11.517-11.517-12.047-12.047h25.57zM2.087 23.568v-14.44l7.22 7.22-7.22 7.22zM3.91 24.696l6.872-6.872 3.004 3.004c1.22 1.221 3.206 1.221 4.427 0l3.004-3.004 6.872 6.872h-24.179zM29.913 23.568l-7.22-7.22 7.22-7.22v14.44z"></path>
</symbol>
<symbol id="icon-phone" viewBox="0 0 32 32">
<title>phone</title>
<path d="M29.432 21.004c-1.959 0-3.883-0.306-5.706-0.909-0.909-0.31-1.944-0.069-2.537 0.535l-3.598 2.716c-4.173-2.227-6.743-4.797-8.94-8.938l2.636-3.504c0.685-0.684 0.931-1.683 0.636-2.621-0.605-1.832-0.912-3.755-0.912-5.715 0-1.416-1.152-2.568-2.568-2.568h-5.877c-1.416 0-2.568 1.152-2.568 2.568 0 16.229 13.203 29.432 29.432 29.432 1.416 0 2.568-1.152 2.568-2.568v-5.86c-0-1.416-1.152-2.568-2.568-2.568zM30.222 29.432c0 0.436-0.354 0.79-0.79 0.79-15.249 0-27.654-12.405-27.654-27.654 0-0.436 0.354-0.79 0.79-0.79h5.877c0.436 0 0.79 0.354 0.79 0.79 0 2.15 0.338 4.26 0.998 6.26 0.092 0.295 0.017 0.601-0.281 0.912l-3.056 4.047c-0.205 0.272-0.237 0.635-0.083 0.938 2.494 4.902 5.524 7.932 10.461 10.462 0.3 0.157 0.668 0.124 0.941-0.082l4.14-3.136c0.209-0.209 0.523-0.284 0.806-0.188 2.013 0.665 4.123 1.002 6.273 1.002 0.436 0 0.79 0.354 0.79 0.79v5.86z"></path>
</symbol>
<symbol id="icon-setting" viewBox="0 0 32 32">
<title>setting</title>
<path d="M31.24 20.5l-3.368-2.819c0.086-0.588 0.128-1.141 0.128-1.681s-0.042-1.093-0.128-1.681l3.368-2.819c0.249-0.208 0.312-0.564 0.15-0.844l-3.066-5.311c-0.162-0.28-0.501-0.404-0.806-0.293l-4.119 1.505c-0.881-0.689-1.859-1.253-2.917-1.678l-0.758-4.327c-0.056-0.319-0.333-0.551-0.657-0.551h-6.133c-0.324 0-0.601 0.232-0.657 0.551l-0.758 4.327c-1.058 0.425-2.036 0.988-2.917 1.678l-4.119-1.505c-0.303-0.113-0.645 0.012-0.806 0.293l-3.066 5.311c-0.162 0.281-0.099 0.637 0.15 0.844l3.368 2.819c-0.086 0.588-0.128 1.141-0.128 1.681s0.042 1.093 0.128 1.681l-3.368 2.819c-0.249 0.208-0.312 0.564-0.15 0.844l3.066 5.311c0.163 0.281 0.505 0.404 0.806 0.293l4.119-1.505c0.881 0.689 1.859 1.253 2.917 1.678l0.758 4.328c0.056 0.319 0.333 0.551 0.657 0.551h6.133c0.324 0 0.601-0.232 0.657-0.551l0.758-4.328c1.058-0.425 2.036-0.988 2.917-1.678l4.119 1.505c0.303 0.109 0.644-0.012 0.806-0.293l3.066-5.311c0.162-0.281 0.099-0.637-0.15-0.844zM27.449 25.504l-3.948-1.443c-0.223-0.083-0.475-0.038-0.657 0.115-0.936 0.785-2.006 1.4-3.184 1.831-0.223 0.082-0.387 0.277-0.428 0.511l-0.726 4.148h-5.013l-0.726-4.148c-0.041-0.234-0.204-0.429-0.428-0.511-1.177-0.431-2.248-1.047-3.184-1.831-0.182-0.153-0.433-0.198-0.657-0.115l-3.948 1.443-2.506-4.341 3.228-2.703c0.182-0.152 0.27-0.391 0.229-0.625-0.114-0.656-0.169-1.256-0.169-1.835s0.055-1.179 0.169-1.835c0.040-0.234-0.047-0.473-0.229-0.625l-3.228-2.703 2.507-4.341 3.948 1.443c0.224 0.083 0.475 0.038 0.657-0.115 0.936-0.784 2.006-1.4 3.184-1.831 0.223-0.082 0.387-0.277 0.428-0.511l0.726-4.148h5.013l0.726 4.148c0.041 0.234 0.204 0.429 0.428 0.511 1.177 0.431 2.248 1.047 3.184 1.831 0.182 0.153 0.434 0.198 0.657 0.115l3.948-1.443 2.506 4.341-3.229 2.703c-0.182 0.152-0.27 0.391-0.229 0.625 0.114 0.656 0.169 1.256 0.169 1.835s-0.055 1.179-0.169 1.835c-0.040 0.234 0.047 0.473 0.229 0.625l3.229 2.703-2.506 4.341z"></path>
<path d="M16 9.333c-3.676 0-6.667 2.991-6.667 6.667s2.991 6.667 6.667 6.667 6.667-2.991 6.667-6.667-2.991-6.667-6.667-6.667zM16 21.333c-2.941 0-5.333-2.393-5.333-5.333s2.393-5.333 5.333-5.333 5.333 2.393 5.333 5.333-2.393 5.333-5.333 5.333z"></path>
</symbol>
<symbol id="icon-worldwide" viewBox="0 0 32 32">
<title>worldwide</title>
<path d="M16 0c-8.822 0-16 7.178-16 16s7.178 16 16 16 16-7.178 16-16-7.178-16-16-16zM15.063 7.854c-1.426-0.061-2.838-0.262-4.186-0.588 0.215-0.51 0.449-1 0.701-1.465 1.034-1.905 2.303-3.241 3.485-3.726zM15.063 9.73v5.333h-5.856c0.083-2.081 0.437-4.147 1.024-6.027 1.555 0.392 3.187 0.629 4.832 0.694zM15.063 16.938v5.333c-1.645 0.066-3.277 0.303-4.832 0.694-0.587-1.879-0.941-3.946-1.024-6.027zM15.063 24.146v5.778c-1.183-0.484-2.452-1.821-3.485-3.726-0.252-0.464-0.486-0.954-0.701-1.465 1.348-0.326 2.76-0.526 4.186-0.588zM16.938 24.146c1.426 0.061 2.838 0.262 4.186 0.588-0.215 0.51-0.449 1-0.701 1.465-1.034 1.905-2.303 3.241-3.485 3.726zM16.938 22.27v-5.333h5.856c-0.083 2.081-0.437 4.147-1.024 6.027-1.555-0.392-3.187-0.629-4.832-0.694zM16.938 15.063v-5.333c1.645-0.066 3.277-0.303 4.832-0.694 0.587 1.879 0.941 3.946 1.024 6.027zM16.938 7.854v-5.778c1.183 0.484 2.452 1.821 3.485 3.726 0.252 0.464 0.486 0.954 0.701 1.465-1.348 0.326-2.76 0.526-4.186 0.588zM22.071 4.907c-0.469-0.865-0.98-1.628-1.517-2.279 1.875 0.64 3.573 1.664 5 2.978-0.814 0.436-1.692 0.815-2.615 1.132-0.262-0.636-0.552-1.248-0.868-1.831zM9.929 4.907c-0.316 0.583-0.606 1.195-0.868 1.831-0.923-0.317-1.801-0.696-2.615-1.132 1.428-1.313 3.126-2.338 5-2.978-0.538 0.651-1.047 1.413-1.517 2.279zM8.427 8.5c-0.64 2.047-1.016 4.279-1.097 6.562h-5.423c0.201-3.047 1.371-5.834 3.206-8.052 1.018 0.584 2.134 1.084 3.314 1.49zM7.33 16.938c0.081 2.284 0.457 4.515 1.097 6.562-1.181 0.406-2.296 0.906-3.314 1.49-1.835-2.218-3.005-5.005-3.206-8.052zM9.061 25.262c0.262 0.636 0.552 1.248 0.868 1.831 0.47 0.865 0.979 1.628 1.517 2.279-1.874-0.64-3.572-1.664-5-2.978 0.814-0.436 1.692-0.815 2.615-1.132zM22.071 27.093c0.316-0.583 0.606-1.195 0.868-1.831 0.923 0.317 1.801 0.696 2.615 1.132-1.428 1.313-3.126 2.338-5 2.978 0.538-0.651 1.047-1.413 1.517-2.279zM23.573 23.5c0.64-2.047 1.016-4.279 1.097-6.562h5.423c-0.201 3.047-1.371 5.834-3.206 8.052-1.018-0.584-2.134-1.084-3.314-1.49zM24.67 15.063c-0.081-2.284-0.457-4.515-1.097-6.562 1.181-0.406 2.296-0.906 3.314-1.49 1.835 2.218 3.005 5.005 3.206 8.052z"></path>
</symbol>
<symbol id="icon-moneyback" viewBox="0 0 32 32">
<title>moneyback</title>
<path d="M3.822 28.747v1.12c0 1.178 0.955 2.133 2.133 2.133h5.244c1.178 0 2.133-0.955 2.133-2.133v-1.067h5.333v1.067c0 1.178 0.955 2.133 2.133 2.133h5.244c1.178 0 2.133-0.955 2.133-2.133v-1.111c1.28-0.216 2.219-1.323 2.222-2.622v-23.467c-0.002-1.472-1.195-2.665-2.667-2.667h-23.376c-1.472 0.002-2.665 1.195-2.667 2.667v2.133c0 0.295 0.239 0.533 0.533 0.533s0.533-0.239 0.533-0.533v-2.133c0-0.884 0.716-1.6 1.6-1.6h23.376c0.884 0 1.6 0.716 1.6 1.6v23.467c0 0.884-0.716 1.6-1.6 1.6h-23.376c-0.884 0-1.6-0.716-1.6-1.6v-18.667c0-0.295-0.239-0.533-0.533-0.533s-0.533 0.239-0.533 0.533v18.667c0.001 1.266 0.892 2.357 2.132 2.613zM27.111 28.8v1.067c0 0.589-0.478 1.067-1.067 1.067h-5.244c-0.589 0-1.067-0.478-1.067-1.067v-1.067zM12.267 28.8v1.067c0 0.589-0.478 1.067-1.067 1.067h-5.244c-0.589 0-1.067-0.478-1.067-1.067v-1.067z"></path>
<path d="M5.867 18.133c-0.295 0-0.533 0.239-0.533 0.533v4.8c0 0.884 0.716 1.6 1.6 1.6h18.133c0.884 0 1.6-0.716 1.6-1.6v-0.533c0.884 0 1.6-0.716 1.6-1.6v-3.2c0-0.884-0.716-1.6-1.6-1.6v-4.267c0.884 0 1.6-0.716 1.6-1.6v-3.2c0-0.884-0.716-1.6-1.6-1.6v-0.533c0-0.884-0.716-1.6-1.6-1.6h-18.133c-0.884 0-1.6 0.716-1.6 1.6v10.667c0 0.295 0.239 0.533 0.533 0.533s0.533-0.239 0.533-0.533v-10.667c0-0.295 0.239-0.533 0.533-0.533h18.133c0.295 0 0.533 0.239 0.533 0.533v0.533c-0.884 0-1.6 0.716-1.6 1.6v3.2c0 0.884 0.716 1.6 1.6 1.6v4.267c-0.884 0-1.6 0.716-1.6 1.6v3.2c0 0.884 0.716 1.6 1.6 1.6v0.533c0 0.295-0.239 0.533-0.533 0.533h-18.133c-0.295 0-0.533-0.239-0.533-0.533v-4.8c0-0.295-0.239-0.533-0.533-0.533zM25.067 10.667v-3.2c0-0.295 0.239-0.533 0.533-0.533h1.067c0.295 0 0.533 0.239 0.533 0.533v3.2c0 0.295-0.239 0.533-0.533 0.533h-1.067c-0.295 0-0.533-0.239-0.533-0.533zM25.067 21.333v-3.2c0-0.295 0.239-0.533 0.533-0.533h1.067c0.295 0 0.533 0.239 0.533 0.533v3.2c0 0.295-0.239 0.533-0.533 0.533h-1.067c-0.295 0-0.533-0.239-0.533-0.533z"></path>
<path d="M10.087 16.849c1.168 2.821 4.167 4.424 7.161 3.828s5.151-3.224 5.151-6.277-2.157-5.681-5.151-6.277-5.993 1.007-7.161 3.828c-0.655 1.567-0.655 3.331 0 4.898zM13.476 9.702l0.194 0.468c0.070 0.18 0.232 0.308 0.424 0.335s0.382-0.053 0.499-0.207c0.117-0.154 0.14-0.359 0.063-0.536l-0.194-0.468c1.003-0.305 2.074-0.305 3.076 0l-0.194 0.468c-0.078 0.177-0.054 0.382 0.063 0.536s0.307 0.233 0.499 0.207c0.191-0.027 0.354-0.155 0.424-0.335l0.194-0.469c0.925 0.494 1.682 1.251 2.175 2.175l-0.468 0.194c-0.18 0.070-0.308 0.232-0.335 0.424s0.053 0.382 0.207 0.499c0.154 0.117 0.359 0.14 0.536 0.063l0.468-0.194c0.305 1.003 0.305 2.074 0 3.076l-0.468-0.194c-0.177-0.078-0.382-0.054-0.536 0.063s-0.233 0.307-0.207 0.499c0.026 0.191 0.154 0.354 0.335 0.424l0.469 0.194c-0.494 0.925-1.251 1.682-2.175 2.175l-0.194-0.468c-0.070-0.18-0.232-0.308-0.424-0.335s-0.382 0.053-0.499 0.207c-0.116 0.154-0.14 0.359-0.063 0.536l0.194 0.468c-1.003 0.305-2.074 0.305-3.076 0l0.194-0.468c0.078-0.177 0.054-0.382-0.063-0.536s-0.307-0.233-0.499-0.207c-0.191 0.026-0.354 0.154-0.424 0.335l-0.194 0.469c-0.925-0.494-1.682-1.251-2.175-2.175l0.468-0.194c0.18-0.070 0.308-0.232 0.335-0.424s-0.053-0.382-0.207-0.499c-0.154-0.117-0.359-0.14-0.536-0.063l-0.468 0.194c-0.305-1.003-0.305-2.074 0-3.076l0.468 0.194c0.177 0.078 0.382 0.054 0.536-0.063s0.233-0.307 0.207-0.499c-0.027-0.191-0.155-0.354-0.335-0.424l-0.469-0.194c0.493-0.925 1.251-1.682 2.175-2.176z"></path>
<path d="M16.004 17.6c1.409-0.002 2.651-0.926 3.058-2.275s-0.116-2.806-1.289-3.588c-1.173-0.782-2.719-0.704-3.807 0.191s-1.463 2.397-0.923 3.698c0.498 1.195 1.666 1.974 2.961 1.973zM15.183 12.427c1.089-0.449 2.335 0.069 2.785 1.157s-0.067 2.335-1.155 2.786c-1.088 0.451-2.335-0.066-2.787-1.153-0.219-0.523-0.22-1.112-0.002-1.636s0.634-0.939 1.159-1.154z"></path>
<path d="M10.667 5.867h-2.667c-0.295 0-0.533 0.239-0.533 0.533v2.667c0 0.295 0.239 0.533 0.533 0.533s0.533-0.239 0.533-0.533v-2.133h2.133c0.295 0 0.533-0.239 0.533-0.533s-0.239-0.533-0.533-0.533z"></path>
</symbol>
<symbol id="icon-arrows" viewBox="0 0 32 32">
<title>arrows</title>
<path d="M12.234 22.389c-0.407-0.305-0.977-0.224-1.283 0.183-1.527 2.023-3.855 3.183-6.387 3.183h-2.525c-0.509 0-0.916 0.407-0.916 0.916s0.407 0.916 0.916 0.916h2.532c1.568 0 3.068-0.36 4.452-1.066 1.323-0.672 2.498-1.656 3.394-2.851 0.299-0.4 0.224-0.977-0.183-1.283z"></path>
<path d="M14.82 9.507c0.17 0.129 0.367 0.19 0.563 0.19 0.271 0 0.543-0.122 0.726-0.353 1.527-1.968 3.828-3.095 6.312-3.095h5.328l-2.844 2.844c-0.36 0.36-0.36 0.937 0 1.296 0.176 0.176 0.414 0.271 0.645 0.271s0.468-0.088 0.645-0.271l4.412-4.412c0.36-0.36 0.36-0.937 0-1.296l-4.412-4.412c-0.36-0.36-0.937-0.36-1.296 0s-0.36 0.937 0 1.296l2.844 2.844h-5.328c-3.054 0-5.884 1.385-7.765 3.808-0.299 0.407-0.231 0.977 0.17 1.29z"></path>
<path d="M26.202 21.616c-0.36-0.36-0.937-0.36-1.296 0s-0.36 0.937 0 1.296l2.844 2.844h-5.328c-4.405 0-7.989-3.584-7.989-7.989v-3.529c0-5.416-4.405-9.821-9.821-9.821h-2.532c-0.509 0-0.916 0.407-0.916 0.916s0.407 0.916 0.916 0.916h2.532c4.405 0 7.989 3.584 7.989 7.989v3.529c0 5.416 4.405 9.821 9.821 9.821h5.328l-2.844 2.844c-0.36 0.36-0.36 0.937 0 1.296 0.176 0.176 0.414 0.271 0.645 0.271s0.468-0.088 0.645-0.271l4.412-4.412c0.36-0.36 0.36-0.937 0-1.296l-4.405-4.405z"></path>
</symbol>
<symbol id="icon-cart" viewBox="0 0 32 32">
<title>cart</title>
<path d="M10.31 20.688h0.001c0.001 0 0.002-0 0.004-0h16.997c0.418 0 0.786-0.278 0.901-0.68l3.75-13.125c0.081-0.283 0.024-0.587-0.153-0.822s-0.454-0.373-0.749-0.373h-22.915l-0.67-3.016c-0.095-0.429-0.476-0.734-0.915-0.734h-5.625c-0.518 0-0.938 0.42-0.938 0.938s0.42 0.938 0.938 0.938h4.873c0.119 0.534 3.207 14.432 3.385 15.232-0.996 0.433-1.695 1.427-1.695 2.581 0 1.551 1.262 2.813 2.813 2.813h17c0.518 0 0.938-0.42 0.938-0.938s-0.42-0.938-0.938-0.938h-17c-0.517 0-0.938-0.421-0.938-0.938s0.419-0.936 0.935-0.937zM29.82 7.563l-3.214 11.25h-15.541l-2.5-11.25z"></path>
<path d="M9.375 27.25c0 1.551 1.262 2.813 2.813 2.813s2.813-1.262 2.813-2.813-1.262-2.813-2.813-2.813-2.813 1.262-2.813 2.813zM12.188 26.313c0.517 0 0.938 0.421 0.938 0.938s-0.421 0.938-0.938 0.938-0.938-0.421-0.938-0.938 0.421-0.938 0.938-0.938z"></path>
<path d="M22.625 27.25c0 1.551 1.262 2.813 2.813 2.813s2.813-1.262 2.813-2.813-1.262-2.813-2.813-2.813-2.813 1.262-2.813 2.813zM25.438 26.313c0.517 0 0.938 0.421 0.938 0.938s-0.421 0.938-0.938 0.938-0.938-0.421-0.938-0.938 0.421-0.938 0.938-0.938z"></path>
</symbol>
</defs>
</svg>
