<svg aria-hidden="true" style="position:absolute;width:0;height:0" xmlns="http://www.w3.org/2000/svg" overflow="hidden"><defs><symbol id="icon-clock" viewBox="0 0 32 32"><path d="M16 0C7.178 0 0 7.178 0 16s7.178 16 16 16 16-7.178 16-16S24.822 0 16 0zm0 30C8.28 30 2 23.72 2 16S8.28 2 16 2s14 6.28 14 14-6.28 14-14 14z"/><path d="M17 6h-2v10.414l6.293 6.293 1.414-1.414L17 15.586z"/></symbol><symbol id="icon-compass" viewBox="0 0 32 32"><path d="M16 0C7.164 0 0 7.164 0 16s7.164 16 16 16 16-7.164 16-16C31.99 7.168 24.832.01 16 0zm0 30.933C7.753 30.933 1.067 24.247 1.067 16S7.753 1.067 16 1.067 30.933 7.753 30.933 16c-.009 8.243-6.69 14.924-14.933 14.933z"/><path d="M16 2.667C8.636 2.667 2.667 8.637 2.667 16S8.637 29.333 16 29.333 29.333 23.363 29.333 16C29.325 8.64 23.36 2.675 16 2.667zm0 25.6C9.225 28.267 3.733 22.775 3.733 16S9.225 3.733 16 3.733 28.267 9.225 28.267 16C28.259 22.772 22.772 28.259 16 28.267z"/><path d="M23.855 8.145a.534.534 0 00-.64-.086l-9.522 5.434c-.006.004-.008.01-.014.014a1.534 1.534 0 00-.171.171c-.003.006-.01.009-.013.014l-5.436 9.522a.533.533 0 00.727.727l9.52-5.434c.006-.004.008-.01.014-.014.061-.052.118-.109.171-.171.003-.006.01-.009.013-.014l5.436-9.52a.533.533 0 00-.086-.643zM9.954 22.046l4.121-7.216 3.099 3.096zm7.971-4.873l-3.093-3.094 7.216-4.121zM7.467 15.467H5.334a.533.533 0 100 1.066h2.133a.533.533 0 100-1.066zm19.2 0h-2.133a.533.533 0 100 1.066h2.133a.533.533 0 100-1.066zM16 8a.533.533 0 00.533-.533V5.334a.533.533 0 10-1.066 0v2.133c0 .295.239.533.533.533zm0 16a.533.533 0 00-.533.533v2.133a.533.533 0 101.066 0v-2.133A.533.533 0 0016 24z"/></symbol><symbol id="icon-forward" viewBox="0 0 32 32"><path d="M31.761 15.541L16.603 4.874a.56.56 0 00-.885.459v9.98L.883 4.88a.563.563 0 00-.885.46v21.319a.564.564 0 00.562.561.57.57 0 00.323-.102l14.835-10.432v9.98a.564.564 0 00.562.562.56.56 0 00.323-.103l15.158-10.667a.558.558 0 000-.918zM1.123 25.579V6.422L14.744 16 1.123 25.579zm15.719.006V6.415L30.463 16l-13.621 9.585z"/></symbol><symbol id="icon-heart" viewBox="0 0 32 32"><path d="M16 30.22c-.456 0-.895-.165-1.237-.465a374.562 374.562 0 00-3.639-3.13l-.006-.005c-3.224-2.747-6.008-5.12-7.945-7.457-2.165-2.613-3.174-5.09-3.174-7.796 0-2.629.902-5.055 2.539-6.831C4.195 2.739 6.467 1.75 8.939 1.75c1.847 0 3.539.584 5.028 1.736A10.288 10.288 0 0116 5.609c.6-.83 1.281-1.541 2.033-2.123 1.489-1.152 3.181-1.736 5.028-1.736 2.471 0 4.744.99 6.401 2.786C31.099 6.312 32 8.737 32 11.367c0 2.706-1.008 5.184-3.174 7.796-1.937 2.337-4.721 4.71-7.944 7.457-1.102.938-2.35 2.002-3.645 3.136A1.88 1.88 0 0116 30.22zM8.939 3.624c-1.942 0-3.725.775-5.023 2.182-1.317 1.428-2.042 3.403-2.042 5.56 0 2.276.846 4.312 2.743 6.6 1.833 2.212 4.56 4.536 7.717 7.227l.006.005c1.104.941 2.355 2.007 3.657 3.146a430.966 430.966 0 013.669-3.151c3.157-2.691 5.884-5.014 7.717-7.226 1.896-2.289 2.742-4.324 2.742-6.6 0-2.157-.725-4.132-2.042-5.56-1.297-1.407-3.081-2.182-5.023-2.182-1.422 0-2.728.452-3.881 1.344-1.028.795-1.743 1.8-2.163 2.503-.216.362-.596.577-1.016.577s-.801-.216-1.016-.577c-.419-.703-1.135-1.708-2.163-2.503-1.153-.892-2.459-1.344-3.881-1.344z"/></symbol><symbol id="icon-mail" viewBox="0 0 32 32"><path d="M28.87 5.217H3.131a3.135 3.135 0 00-3.13 3.13v15.304a3.135 3.135 0 003.13 3.13H28.87a3.134 3.134 0 003.13-3.13V8.347a3.135 3.135 0 00-3.13-3.13zm-.085 2.087L16.738 19.351a1.043 1.043 0 01-1.476 0L3.215 7.304h25.57zM2.087 23.568V9.128l7.22 7.22-7.22 7.22zm1.823 1.128l6.872-6.872 3.004 3.004a3.133 3.133 0 004.427 0l3.004-3.004 6.872 6.872H3.91zm26.003-1.128l-7.22-7.22 7.22-7.22v14.44z"/></symbol><symbol id="icon-phone" viewBox="0 0 32 32"><path d="M29.432 21.004c-1.959 0-3.883-.306-5.706-.909-.909-.31-1.944-.069-2.537.535l-3.598 2.716c-4.173-2.227-6.743-4.797-8.94-8.938l2.636-3.504a2.585 2.585 0 00.636-2.621 18.192 18.192 0 01-.912-5.715A2.57 2.57 0 008.443 0H2.566A2.57 2.57 0 00-.002 2.568C-.002 18.797 13.201 32 29.43 32a2.57 2.57 0 002.568-2.568v-5.86a2.57 2.57 0 00-2.568-2.568zm.79 8.428a.79.79 0 01-.79.79c-15.249 0-27.654-12.405-27.654-27.654a.79.79 0 01.79-.79h5.877a.79.79 0 01.79.79c0 2.15.338 4.26.998 6.26.092.295.017.601-.281.912l-3.056 4.047a.888.888 0 00-.083.938c2.494 4.902 5.524 7.932 10.461 10.462.3.157.668.124.941-.082l4.14-3.136a.786.786 0 01.806-.188 19.959 19.959 0 006.273 1.002.79.79 0 01.79.79v5.86z"/></symbol><symbol id="icon-setting" viewBox="0 0 32 32"><path d="M31.24 20.5l-3.368-2.819C27.958 17.093 28 16.54 28 16s-.042-1.093-.128-1.681L31.24 11.5a.665.665 0 00.15-.844l-3.066-5.311a.667.667 0 00-.806-.293l-4.119 1.505a11.964 11.964 0 00-2.917-1.678L19.724.552a.666.666 0 00-.657-.551h-6.133a.666.666 0 00-.657.551l-.758 4.327a11.931 11.931 0 00-2.917 1.678L4.483 5.052a.664.664 0 00-.806.293L.611 10.656a.665.665 0 00.15.844l3.368 2.819c-.086.588-.128 1.141-.128 1.681s.042 1.093.128 1.681L.761 20.5a.665.665 0 00-.15.844l3.066 5.311a.668.668 0 00.806.293l4.119-1.505a11.964 11.964 0 002.917 1.678l.758 4.328a.666.666 0 00.657.551h6.133a.666.666 0 00.657-.551l.758-4.328a11.931 11.931 0 002.917-1.678l4.119 1.505a.669.669 0 00.806-.293l3.066-5.311a.665.665 0 00-.15-.844zm-3.791 5.004l-3.948-1.443a.664.664 0 00-.657.115c-.936.785-2.006 1.4-3.184 1.831a.669.669 0 00-.428.511l-.726 4.148h-5.013l-.726-4.148a.667.667 0 00-.428-.511 10.632 10.632 0 01-3.184-1.831.664.664 0 00-.657-.115L4.55 25.504l-2.506-4.341 3.228-2.703a.666.666 0 00.229-.625c-.114-.656-.169-1.256-.169-1.835s.055-1.179.169-1.835a.668.668 0 00-.229-.625l-3.228-2.703 2.507-4.341 3.948 1.443a.664.664 0 00.657-.115 10.62 10.62 0 013.184-1.831.669.669 0 00.428-.511l.726-4.148h5.013l.726 4.148a.667.667 0 00.428.511 10.632 10.632 0 013.184 1.831.664.664 0 00.657.115l3.948-1.443 2.506 4.341-3.229 2.703a.666.666 0 00-.229.625c.114.656.169 1.256.169 1.835s-.055 1.179-.169 1.835a.668.668 0 00.229.625l3.229 2.703-2.506 4.341z"/><path d="M16 9.333c-3.676 0-6.667 2.991-6.667 6.667s2.991 6.667 6.667 6.667 6.667-2.991 6.667-6.667S19.676 9.333 16 9.333zm0 12c-2.941 0-5.333-2.393-5.333-5.333S13.06 10.667 16 10.667 21.333 13.06 21.333 16 18.94 21.333 16 21.333z"/></symbol><symbol id="icon-worldwide" viewBox="0 0 32 32"><path d="M16 0C7.178 0 0 7.178 0 16s7.178 16 16 16 16-7.178 16-16S24.822 0 16 0zm-.937 7.854a21.846 21.846 0 01-4.186-.588c.215-.51.449-1 .701-1.465 1.034-1.905 2.303-3.241 3.485-3.726zm0 1.876v5.333H9.207a23.576 23.576 0 011.024-6.027 23.67 23.67 0 004.832.694zm0 7.208v5.333a23.809 23.809 0 00-4.832.694 23.568 23.568 0 01-1.024-6.027zm0 7.208v5.778c-1.183-.484-2.452-1.821-3.485-3.726a16.392 16.392 0 01-.701-1.465 21.925 21.925 0 014.186-.588zm1.875 0c1.426.061 2.838.262 4.186.588-.215.51-.449 1-.701 1.465-1.034 1.905-2.303 3.241-3.485 3.726zm0-1.876v-5.333h5.856a23.576 23.576 0 01-1.024 6.027 23.67 23.67 0 00-4.832-.694zm0-7.207V9.73a23.809 23.809 0 004.832-.694 23.568 23.568 0 011.024 6.027zm0-7.209V2.076c1.183.484 2.452 1.821 3.485 3.726.252.464.486.954.701 1.465-1.348.326-2.76.526-4.186.588zm5.133-2.947a14.273 14.273 0 00-1.517-2.279 14.118 14.118 0 015 2.978c-.814.436-1.692.815-2.615 1.132a19.154 19.154 0 00-.868-1.831zm-12.142 0a19.154 19.154 0 00-.868 1.831 17.772 17.772 0 01-2.615-1.132 14.15 14.15 0 015-2.978 14.228 14.228 0 00-1.517 2.279zM8.427 8.5a25.1 25.1 0 00-1.097 6.562H1.907A14.06 14.06 0 015.113 7.01 19.275 19.275 0 008.427 8.5zM7.33 16.938A25.094 25.094 0 008.427 23.5a19.24 19.24 0 00-3.314 1.49 14.06 14.06 0 01-3.206-8.052zm1.731 8.324c.262.636.552 1.248.868 1.831.47.865.979 1.628 1.517 2.279a14.135 14.135 0 01-5-2.978 17.772 17.772 0 012.615-1.132zm13.01 1.831c.316-.583.606-1.195.868-1.831.923.317 1.801.696 2.615 1.132a14.15 14.15 0 01-5 2.978 14.228 14.228 0 001.517-2.279zm1.502-3.593a25.1 25.1 0 001.097-6.562h5.423a14.06 14.06 0 01-3.206 8.052 19.275 19.275 0 00-3.314-1.49zm1.097-8.437a25.094 25.094 0 00-1.097-6.562 19.24 19.24 0 003.314-1.49 14.06 14.06 0 013.206 8.052z"/></symbol><symbol id="icon-moneyback" viewBox="0 0 32 32"><path d="M3.822 28.747v1.12c0 1.178.955 2.133 2.133 2.133h5.244a2.133 2.133 0 002.133-2.133V28.8h5.333v1.067c0 1.178.955 2.133 2.133 2.133h5.244a2.133 2.133 0 002.133-2.133v-1.111a2.665 2.665 0 002.222-2.622V2.667A2.67 2.67 0 0027.73 0H4.354a2.67 2.67 0 00-2.667 2.667V4.8a.533.533 0 101.066 0V2.667a1.6 1.6 0 011.6-1.6h23.376a1.6 1.6 0 011.6 1.6v23.467a1.6 1.6 0 01-1.6 1.6H4.353a1.6 1.6 0 01-1.6-1.6V7.467a.533.533 0 10-1.066 0v18.667a2.671 2.671 0 002.132 2.613zm23.289.053v1.067c0 .589-.478 1.067-1.067 1.067H20.8a1.067 1.067 0 01-1.067-1.067V28.8zm-14.844 0v1.067c0 .589-.478 1.067-1.067 1.067H5.956a1.067 1.067 0 01-1.067-1.067V28.8z"/><path d="M5.867 18.133a.533.533 0 00-.533.533v4.8a1.6 1.6 0 001.6 1.6h18.133a1.6 1.6 0 001.6-1.6v-.533a1.6 1.6 0 001.6-1.6v-3.2a1.6 1.6 0 00-1.6-1.6v-4.267a1.6 1.6 0 001.6-1.6v-3.2a1.6 1.6 0 00-1.6-1.6v-.533a1.6 1.6 0 00-1.6-1.6H6.934a1.6 1.6 0 00-1.6 1.6V16A.533.533 0 106.4 16V5.333c0-.295.239-.533.533-.533h18.133c.295 0 .533.239.533.533v.533a1.6 1.6 0 00-1.6 1.6v3.2a1.6 1.6 0 001.6 1.6v4.267a1.6 1.6 0 00-1.6 1.6v3.2a1.6 1.6 0 001.6 1.6v.533a.533.533 0 01-.533.533H6.933a.533.533 0 01-.533-.533v-4.8a.533.533 0 00-.533-.533zm19.2-7.466v-3.2c0-.295.239-.533.533-.533h1.067c.295 0 .533.239.533.533v3.2a.533.533 0 01-.533.533H25.6a.533.533 0 01-.533-.533zm0 10.666v-3.2c0-.295.239-.533.533-.533h1.067c.295 0 .533.239.533.533v3.2a.533.533 0 01-.533.533H25.6a.533.533 0 01-.533-.533z"/><path d="M10.087 16.849a6.4 6.4 0 100-4.898 6.35 6.35 0 000 4.898zm3.389-7.147l.194.468a.534.534 0 10.986-.408l-.194-.468a5.285 5.285 0 013.076 0l-.194.468a.535.535 0 10.986.408l.194-.469a5.288 5.288 0 012.175 2.175l-.468.194a.534.534 0 10.408.986l.468-.194a5.285 5.285 0 010 3.076l-.468-.194a.535.535 0 10-.408.986l.469.194a5.288 5.288 0 01-2.175 2.175l-.194-.468a.534.534 0 10-.986.408l.194.468a5.285 5.285 0 01-3.076 0l.194-.468a.535.535 0 10-.986-.408l-.194.469a5.288 5.288 0 01-2.175-2.175l.468-.194a.534.534 0 10-.408-.986l-.468.194a5.285 5.285 0 010-3.076l.468.194a.535.535 0 10.408-.986l-.469-.194a5.29 5.29 0 012.175-2.176z"/><path d="M16.004 17.6a3.2 3.2 0 001.769-5.863 3.2 3.2 0 10-1.769 5.862zm-.821-5.173a2.133 2.133 0 111.627 3.944 2.133 2.133 0 01-1.627-3.944zm-4.516-6.56H8a.533.533 0 00-.533.533v2.667a.533.533 0 101.066 0V6.934h2.133a.533.533 0 100-1.066z"/></symbol><symbol id="icon-arrows" viewBox="0 0 32 32"><path d="M12.234 22.389a.913.913 0 00-1.283.183 7.938 7.938 0 01-6.387 3.183H2.039c-.509 0-.916.407-.916.916s.407.916.916.916h2.532c1.568 0 3.068-.36 4.452-1.066a9.827 9.827 0 003.394-2.851.92.92 0 00-.183-1.283zM14.82 9.507a.926.926 0 001.289-.163 7.938 7.938 0 016.312-3.095h5.328l-2.844 2.844a.913.913 0 000 1.296c.176.176.414.271.645.271s.468-.088.645-.271l4.412-4.412a.913.913 0 000-1.296L26.195.269c-.36-.36-.937-.36-1.296 0s-.36.937 0 1.296l2.844 2.844h-5.328a9.766 9.766 0 00-7.765 3.808.931.931 0 00.17 1.29z"/><path d="M26.202 21.616c-.36-.36-.937-.36-1.296 0s-.36.937 0 1.296l2.844 2.844h-5.328c-4.405 0-7.989-3.584-7.989-7.989v-3.529c0-5.416-4.405-9.821-9.821-9.821H2.08c-.509 0-.916.407-.916.916s.407.916.916.916h2.532c4.405 0 7.989 3.584 7.989 7.989v3.529c0 5.416 4.405 9.821 9.821 9.821h5.328l-2.844 2.844a.913.913 0 000 1.296c.176.176.414.271.645.271s.468-.088.645-.271l4.412-4.412a.913.913 0 000-1.296l-4.405-4.405z"/></symbol><symbol id="icon-cart" viewBox="0 0 32 32"><path d="M10.31 20.688h17.002a.938.938 0 00.901-.68l3.75-13.125a.937.937 0 00-.902-1.195H8.146l-.67-3.016a.937.937 0 00-.915-.734H.936a.938.938 0 000 1.876h4.873l3.385 15.232a2.817 2.817 0 00-1.695 2.581 2.816 2.816 0 002.813 2.813h17a.938.938 0 000-1.876h-17a.937.937 0 01-.003-1.875zM29.82 7.563l-3.214 11.25H11.065l-2.5-11.25z"/><path d="M9.375 27.25c0 1.551 1.262 2.813 2.813 2.813s2.813-1.262 2.813-2.813-1.262-2.813-2.813-2.813-2.813 1.262-2.813 2.813zm2.813-.937c.517 0 .938.421.938.938s-.421.938-.938.938-.938-.421-.938-.938.421-.938.938-.938zm10.437.937c0 1.551 1.262 2.813 2.813 2.813s2.813-1.262 2.813-2.813-1.262-2.813-2.813-2.813-2.813 1.262-2.813 2.813zm2.813-.937c.517 0 .938.421.938.938s-.421.938-.938.938-.938-.421-.938-.938.421-.938.938-.938z"/></symbol></defs></svg>